<?xml version="1.0" encoding="UTF-8"?><svg id="Layer_2" xmlns="http://www.w3.org/2000/svg" viewBox="0 0 209.36 158.72"><defs><style>.cls-1{stroke-width:0px;}</style></defs><g id="Layer_1-2"><path class="cls-1" d="M187.77,150.84c-1.92-.07-3.83-.38-5.74-.7-.88-.14-1.76-.29-2.52-.39-10.81-2.03-21.35-6.79-30.5-13.78-17.87-13.36-28.85-35.73-28.63-58.4.07-22.67,11.31-44.91,29.36-58.06,9.19-6.89,19.78-11.51,30.58-13.37l1.66-.26c2.31-.36,4.49-.71,6.74-.75l20.59-.22V0h-13l-7.76.22c-2.51.05-4.97.44-7.34.82l-1.67.26c-11.61,1.99-22.94,6.93-32.72,14.26-14.59,10.63-25.02,26.83-29.25,44.57-6.24-22.37-22.63-41.91-44.18-50.98-7.48-3.13-14.81-5.1-21.76-5.88-3.91-.48-8.79-.58-10.73-.59H.08v4.91h40.8c1.83.02,6.49.12,10.18.56,6.51.73,13.38,2.6,20.43,5.54,26.18,11.02,44.25,38.57,43.92,66.98h.09c.39,12.11,3.74,24.04,9.47,34.62-8.71-.29-17.16-3.93-23.32-10.1-6.45-6.43-10.14-15.34-10.13-24.46.22-19.13-11.96-37.71-29.66-45.18-4.98-2.01-9.46-3.22-13.69-3.68-2.42-.25-4.41-.34-7.28-.38H.08v4.91h40.78c2.65.05,4.52.12,6.8.36,3.77.4,7.82,1.5,12.34,3.33,15.84,6.69,26.77,23.33,26.62,40.48h-.02c0,10.4,4.23,20.76,11.59,28.1,7.34,7.35,17.52,11.57,27.92,11.57v-2.92c5.09,8.79,11.85,16.56,19.93,22.6,9.74,7.43,20.99,12.5,32.66,14.71l2.52.39c2.06.34,4.19.68,6.32.76,2.49.13,5.36.28,7.26.28.3,0,.58,0,.82,0h12.99v-4.91h-13.07c-1.82.07-5.01-.12-7.79-.27Z"/><path class="cls-1" d="M181.28,140.58c-9.39-1.77-18.58-5.92-26.59-12.02-15.58-11.65-25.15-31.16-24.97-50.94.08-19.78,9.89-39.17,25.62-50.64,8.04-6.03,17.27-10.06,26.75-11.68,5.34-1.02,11.71-1.06,14.23-1.06h12.99v-4.91h-12.96c-2.66-.02-9.41.04-15.14,1.14-10.19,1.74-20.15,6.08-28.79,12.55-16.94,12.35-27.52,33.26-27.61,54.56-.19,21.3,10.13,42.33,26.93,54.89,8.59,6.54,18.49,11.01,28.63,12.92,5.86,1.13,11.98,1.28,14.77,1.28h13.49v-4.91h-13.01c-2.4.05-8.52-.07-14.34-1.19Z"/><path class="cls-1" d="M201.36,132.04c-6.02.05-12.27.12-18.23-1.02-7.91-1.47-15.69-4.99-22.52-10.19-13.19-9.84-21.3-26.38-21.16-43.16.08-16.77,8.4-33.21,21.72-42.91,6.84-5.12,14.65-8.54,22.61-9.88,5.91-1.02,12.07-.96,18.06-.91,2.5.03,5.01.05,7.52,0l-.1-4.91c-2.47.04-4.92.04-7.38,0-6.2-.04-12.59-.12-18.93.99-8.71,1.47-17.26,5.2-24.7,10.77-14.54,10.58-23.62,28.52-23.71,46.83-.15,18.3,8.72,36.35,23.12,47.11,7.42,5.65,15.91,9.49,24.56,11.09,5.02.96,10.07,1.13,15.03,1.13,1.4,0,2.78-.02,4.16-.03,2.4-.03,4.78-.05,7.17,0l.1-4.91c-2.45-.05-4.89-.04-7.32,0Z"/><path class="cls-1" d="M184.68,29.62c-7.23,1.21-14.37,4.32-20.6,8.98-12.12,8.83-19.71,23.81-19.82,39.11-.09,15.3,7.32,30.39,19.32,39.34,6.22,4.72,13.31,7.93,20.53,9.27,3.8.65,6.98.91,11.28.91h13.23v-4.91h-13c-4.28,0-7.07-.21-10.65-.83-6.44-1.19-12.81-4.08-18.44-8.36-10.79-8.05-17.44-21.61-17.36-35.38.1-13.77,6.91-27.25,17.82-35.19,5.64-4.21,12.04-7,18.51-8.09,3.43-.58,6.24-.76,10.82-.76h12.99v-4.91h-12.98c-4.85-.03-7.96.19-11.65.83Z"/><path class="cls-1" d="M191.11,38.66c-1.09.04-2.18.14-3.26.32-.44.08-.87.14-1.43.21-5.76.95-11.48,3.44-16.52,7.21-9.84,7.16-15.79,18.88-15.91,31.38-.04,12.49,5.76,24.29,15.51,31.56,5.04,3.81,10.72,6.38,16.65,7.45.51.05,1.01.13,1.52.23.97.17,1.85.17,2.89.33l1.46.07c.8.05,1.66.11,2.89.11.23,0,.47,0,.72,0h12.99v-4.91h-13.03c-1.47,0-2.42-.03-3.28-.09-.55-.04-1.07-.07-1.72-.08-.72,0-1.38-.12-2.06-.25-.65-.12-1.3-.23-1.72-.26-4.96-.91-9.92-3.16-14.36-6.51-8.4-6.26-13.59-16.84-13.55-27.6.11-10.77,5.43-21.29,13.91-27.46,4.44-3.31,9.42-5.49,14.29-6.29.52-.06,1.03-.14,1.55-.23.78-.12,1.46-.32,2.55-.25l18.1-.14v-4.91h-13l-5.2.14Z"/><path class="cls-1" d="M49.96,17.41c5.66.62,11.49,2.21,17.8,4.82,22.84,9.63,38.59,33.66,38.31,58.42l4.91.06c.3-26.71-16.68-52.62-41.33-63.02-6.76-2.79-13.03-4.48-19.14-5.15-2.59-.31-5.82-.49-9.61-.53H.08v4.91h40.8c3.54.04,6.67.21,9.08.49Z"/><path class="cls-1" d="M48.81,27.07c4.74.52,9.68,1.86,15.08,4.08,19.35,8.16,32.7,28.51,32.47,49.5l4.91.06c.25-22.92-14.33-45.16-35.49-54.09-5.85-2.4-11.23-3.85-16.44-4.42-4.55-.49-9.12-.47-13.51-.46H.08v4.91h35.76c4.3.03,8.7-.02,12.97.43Z"/><path class="cls-1" d="M76.9,80.65c-.03,12.89,5.57,25.52,14.69,34.59,9.05,9.1,21.59,14.31,34.43,14.31h.11v-4.91h-.11c-11.53,0-22.81-4.68-30.95-12.88-8.2-8.15-13.28-19.52-13.25-31.09h0c.16-15.33-9.61-30.22-23.83-36.23-4.17-1.65-7.65-2.59-10.98-2.94-2.05-.19-3.21-.27-6.1-.32H.08l-.08,77.75h.17c1.92,0,3.72-1.25,4.19-2.63.44-.64.5-1.27.52-1.54l.08-68.68h4.82v67.81s-.04.83-.04.83c-.1.94-.23,1.93-.65,2.89-1.35,3.57-5.03,6.12-8.8,6.12h-.15l-.09,4.91h.24c5.83,0,11.31-3.79,13.34-9.17.65-1.46.87-2.97,1-4.36l.06-69.04h4.82v64.26c.03,3.68.06,7.48-1.37,10.82-2.71,7.17-10.14,12.3-17.75,12.3H.13l-.08,4.91h.35c9.73,0,18.88-6.32,22.29-15.38,1.79-4.18,1.77-8.7,1.73-12.68V46.1s4.81,0,4.81,0v67.86s-.1,2.25-.1,2.25c-.27,3.19-.91,6.03-1.94,8.54-4.05,10.75-15.25,18.47-26.72,18.47H.13l-.07,4.91h.43c13.65,0,26.48-8.85,31.27-21.59,1.19-2.9,1.96-6.24,2.27-10.02l.1-70.42h4.43v63.1l-.12,7.7c-.34,4.12-1.18,7.88-2.56,11.25-5.35,14.2-20.15,24.39-35.31,24.39H.13l-.07,4.91h.54c17.39,0,33.74-11.27,39.86-27.51,1.54-3.78,2.51-8.04,2.89-12.74l.13-71.04c1.04.05,1.91.11,3.03.22,2.84.3,5.92,1.12,9.6,2.59,12.39,5.24,20.94,18.26,20.78,31.66Z"/><path class="cls-1" d="M125.94,134.36c-14.08,0-27.83-5.72-37.76-15.73-10.03-9.95-15.76-23.78-15.71-37.92l-4.91-.02c-.06,15.46,6.2,30.55,17.15,41.41,10.83,10.92,25.85,17.16,41.23,17.16h.19l-.02-4.91h-.17Z"/><path class="cls-1" d="M125.88,144.09c-16.4,0-33.05-6.93-44.59-18.58-11.69-11.58-18.62-28.32-18.55-44.8l-4.91-.02c-.08,18.03,7.22,35.63,19.99,48.29,12.61,12.73,30.11,20.01,48.04,20.01h.26l-.02-4.91h-.23Z"/><path class="cls-1" d="M125.78,153.81c-18.9,0-38.07-7.98-51.36-21.42-13.49-13.36-21.49-32.67-21.4-51.68l-4.91-.02c-.1,20.29,8.45,40.92,22.84,55.17,14.18,14.32,34.66,22.85,54.84,22.85h.35l-.02-4.91h-.33Z"/></g></svg>